<svg width="24" height="24" viewBox="0 0 24 24" version="1.1" xmlns="http://www.w3.org/2000/svg" xmlns:xlink="http://www.w3.org/1999/xlink">
<title>instagram</title>
<desc>Created using Figma</desc>
<g id="Canvas" transform="translate(-13841 -1314)">
<g id="ic/24/social/instagram">
<g id="Combined Shape">
<use xlink:href="#path0_fill" transform="translate(13844 1317)" fill="#484848"/>
</g>
<mask id="mask0_outline" mask-type="alpha">
<g id="Combined Shape">
<use xlink:href="#path0_fill" transform="translate(13844 1317)" fill="#FFFFFF"/>
</g>
</mask>
</g>
</g>
<defs>
<path id="path0_fill" fill-rule="evenodd" d="M 13.0322 0L 4.9668 0C 2.22852 0 0 2.22852 0 4.96729L 0 13.0327C 0 15.7715 2.22852 18 4.9668 18L 13.0322 18C 15.7715 18 18 15.7715 18 13.0327L 18 4.96729C 18 2.22852 15.7715 0 13.0322 0ZM 17 13.3579C 17 15.3662 15.3662 17 13.3574 17L 4.6416 17C 2.63379 17 1 15.3662 1 13.3579L 1 4.64209C 1 2.63379 2.63379 1 4.6416 1L 13.3574 1C 15.3662 1 17 2.63379 17 4.64209L 17 13.3579ZM 4.3623 9.00049C 4.3623 6.44287 6.44336 4.3623 9 4.3623C 11.5576 4.3623 13.6387 6.44287 13.6387 9.00049C 13.6387 11.5576 11.5576 13.6382 9 13.6382C 6.44336 13.6382 4.3623 11.5576 4.3623 9.00049ZM 9 12.8398C 6.88281 12.8398 5.16016 11.1177 5.16016 9C 5.16016 6.88281 6.88281 5.16016 9 5.16016C 11.1172 5.16016 12.8398 6.88281 12.8398 9C 12.8398 11.1177 11.1172 12.8398 9 12.8398ZM 13.4355 2.83447C 13.584 2.68506 13.79 2.6001 14 2.6001C 14.2109 2.6001 14.418 2.68506 14.5664 2.83447C 14.7148 2.98242 14.7998 3.18896 14.7998 3.3999C 14.7998 3.61035 14.7148 3.81689 14.5664 3.96582C 14.417 4.11426 14.2109 4.2002 14 4.2002C 13.79 4.2002 13.583 4.11426 13.4355 3.96582C 13.2861 3.81689 13.2002 3.61035 13.2002 3.3999C 13.2002 3.18896 13.2861 2.98242 13.4355 2.83447Z"/>
</defs>
</svg>

